<svg width="12" height="12" viewBox="0 0 12 12" fill="none" xmlns="http://www.w3.org/2000/svg">
<path fill-rule="evenodd" clip-rule="evenodd" d="M6.66609 11.9651C6.54518 11.9771 6.4145 11.9906 6.3762 11.9951C6.2335 12.0108 5.45769 11.9861 5.2444 11.9583C2.75476 11.6326 0.754029 9.84624 0.159217 7.4182C0.0300412 6.89206 4.69975e-07 6.62411 5.2437e-07 6.0019C5.78766e-07 5.37969 0.0300413 5.11174 0.159218 4.5856C0.53548 3.04997 1.47651 1.74926 2.82085 0.904883C4.16819 0.0597585 5.8685 -0.212693 7.41486 0.16934C10.0517 0.820822 11.9105 3.10926 11.9969 5.81201C12.0464 7.37692 11.5079 8.84575 10.4482 10.0294C9.48994 11.0997 8.07276 11.8247 6.66609 11.9651Z" fill="#1570EF"/>
<path d="M6.53525 8.57162C6.48868 8.73224 6.3933 8.82831 6.22507 8.8831C6.19729 8.8921 6.08463 8.89661 5.97423 8.8936C5.74968 8.8876 5.64979 8.85082 5.55666 8.73974C5.44176 8.60389 5.44176 8.60239 5.44776 6.9872L5.44777 6.98686C5.45377 5.5086 5.45378 5.50785 5.49733 5.42604C5.55216 5.32322 5.6573 5.23015 5.75719 5.19487C5.85632 5.16035 6.15222 5.16035 6.25136 5.19487C6.35125 5.23015 6.45639 5.32322 6.51121 5.42604C6.55477 5.50785 6.55477 5.5086 6.56078 6.98686L6.56078 6.9872C6.56529 8.27064 6.56228 8.48005 6.53525 8.57162Z" fill="white"/>
<path d="M6.51572 3.89791C6.44738 4.03226 6.30694 4.1531 6.16499 4.19964C6.07637 4.22891 5.8413 4.20714 5.75418 4.16211C5.6588 4.11257 5.54164 3.99398 5.49283 3.89791C5.44025 3.79283 5.43124 3.60294 5.47405 3.47535C5.54465 3.26144 5.77671 3.09632 6.00427 3.09632C6.23183 3.09632 6.4639 3.26144 6.5345 3.47535C6.5773 3.60294 6.56829 3.79283 6.51572 3.89791Z" fill="white"/>
</svg>
