<svg width="15" height="20" viewBox="0 0 15 20" fill="none" xmlns="http://www.w3.org/2000/svg">
<path fill-rule="evenodd" clip-rule="evenodd" d="M2 0C0.895431 0 0 0.895431 0 2V18C0 19.1046 0.89543 20 2 20H13C14.1046 20 15 19.1046 15 18V5H10V0H2Z" fill="#12B76A"/>
<path d="M15 5L10 0V5H15Z" fill="#6CE9A6"/>
<path d="M4.02099 16.3833C3.39032 16.3833 2.94666 16.1266 2.68999 15.6133L3.53149 15.1238C3.58649 15.2301 3.65066 15.3071 3.72399 15.3548C3.79732 15.4024 3.89632 15.4263 4.02099 15.4263C4.30332 15.4263 4.44449 15.2961 4.44449 15.0358V12.4508H5.42899V15.0523C5.42899 15.4666 5.30066 15.7929 5.04399 16.0313C4.79099 16.2659 4.44999 16.3833 4.02099 16.3833ZM7.49308 12.4508C7.88175 12.4508 8.20808 12.5773 8.47208 12.8303C8.73608 13.0833 8.86808 13.4059 8.86808 13.7983C8.86808 14.1906 8.73608 14.5133 8.47208 14.7663C8.20808 15.0193 7.88175 15.1458 7.49308 15.1458H6.98158V16.3008H5.99708V12.4508H7.49308ZM7.49308 14.2108C7.60308 14.2108 7.69475 14.1723 7.76808 14.0953C7.84508 14.0183 7.88358 13.9193 7.88358 13.7983C7.88358 13.6773 7.84508 13.5801 7.76808 13.5068C7.69475 13.4298 7.60308 13.3913 7.49308 13.3913H6.98158V14.2108H7.49308ZM13.0691 14.0953V14.4858C13.0691 15.0504 12.8913 15.5088 12.5356 15.8608C12.1836 16.2091 11.7253 16.3833 11.1606 16.3833C10.5593 16.3833 10.0643 16.1908 9.67559 15.8058C9.29059 15.4208 9.09809 14.9459 9.09809 14.3813C9.09809 13.8166 9.29059 13.3399 9.67559 12.9513C10.0606 12.5626 10.5373 12.3683 11.1056 12.3683C11.4649 12.3683 11.7931 12.4489 12.0901 12.6103C12.3908 12.7716 12.6254 12.9861 12.7941 13.2538L11.9581 13.7323C11.8811 13.6113 11.7674 13.5141 11.6171 13.4408C11.4704 13.3674 11.3036 13.3308 11.1166 13.3308C10.8123 13.3308 10.5629 13.4298 10.3686 13.6278C10.1743 13.8258 10.0771 14.0788 10.0771 14.3868C10.0771 14.6838 10.1724 14.9349 10.3631 15.1403C10.5574 15.3456 10.8288 15.4483 11.1771 15.4483C11.6244 15.4483 11.9196 15.2796 12.0626 14.9423H11.1276V14.0953H13.0691Z" fill="white"/>
</svg>
