<svg width="91" height="24" viewBox="0 0 91 24" fill="none" xmlns="http://www.w3.org/2000/svg">
<path d="M12.4155 2.47314C15.2735 4.3785 16.1526 8.46743 16.2262 11.9999C16.1526 15.5324 15.2735 19.6214 12.4155 21.5267M12.4155 2.47314C9.55742 4.3785 8.67834 8.46743 8.60474 11.9999C8.67834 15.5324 9.55742 19.6214 12.4155 21.5267M12.4155 2.47314C7.15396 2.47314 2.88867 6.73843 2.88867 11.9999M12.4155 2.47314C17.677 2.47314 21.9422 6.73843 21.9422 11.9999M12.4155 21.5267C17.677 21.5267 21.9422 17.2614 21.9422 11.9999M12.4155 21.5267C7.15396 21.5267 2.88867 17.2614 2.88867 11.9999M21.9422 11.9999C20.0369 14.858 15.948 15.7371 12.4155 15.8106C8.88296 15.7371 4.79403 14.858 2.88867 11.9999M21.9422 11.9999C20.0369 9.14189 15.948 8.26281 12.4155 8.18922C8.88296 8.26281 4.79403 9.1419 2.88867 11.9999" stroke="#1570EF" stroke-width="1.90536" stroke-linecap="round" stroke-linejoin="round"/>
<path d="M37.9016 15.7129C37.9016 15.4376 37.8606 15.192 37.7788 14.9761C37.6969 14.7528 37.548 14.5481 37.3322 14.3621C37.1163 14.176 36.8112 13.9899 36.4167 13.8039C36.0223 13.6104 35.505 13.4131 34.8649 13.2122C34.1355 12.974 33.4396 12.7061 32.7772 12.4083C32.1222 12.1032 31.538 11.7497 31.0244 11.3477C30.5109 10.9458 30.1052 10.4769 29.8075 9.94105C29.5172 9.40517 29.3721 8.77998 29.3721 8.06547C29.3721 7.37329 29.5247 6.74809 29.8298 6.18988C30.135 5.63167 30.563 5.15533 31.1137 4.76086C31.6645 4.35895 32.312 4.0538 33.0563 3.8454C33.8006 3.62956 34.6193 3.52164 35.5124 3.52164C36.7033 3.52164 37.749 3.73376 38.6496 4.158C39.5576 4.57479 40.2647 5.16278 40.7708 5.92194C41.2769 6.67366 41.5299 7.54819 41.5299 8.54553H37.9127C37.9127 8.1064 37.8197 7.71938 37.6336 7.38445C37.455 7.04208 37.1796 6.77414 36.8075 6.58063C36.4428 6.38712 35.985 6.29036 35.4343 6.29036C34.8984 6.29036 34.4481 6.37223 34.0834 6.53597C33.7262 6.69227 33.4545 6.90811 33.2684 7.1835C33.0898 7.45888 33.0005 7.76031 33.0005 8.0878C33.0005 8.34829 33.0675 8.58646 33.2014 8.80231C33.3428 9.0107 33.5438 9.20794 33.8043 9.39401C34.0722 9.57264 34.3997 9.74382 34.7867 9.90756C35.1738 10.0713 35.6166 10.2276 36.1153 10.3765C36.9861 10.6518 37.7564 10.957 38.4263 11.2919C39.1036 11.6268 39.6729 12.0064 40.1344 12.4307C40.5959 12.8549 40.9419 13.335 41.1727 13.8709C41.4108 14.4067 41.5299 15.0133 41.5299 15.6906C41.5299 16.4126 41.3885 17.0527 41.1057 17.6109C40.8303 18.1691 40.4284 18.6454 39.9 19.0399C39.379 19.4269 38.7538 19.7209 38.0244 19.9219C37.295 20.1228 36.48 20.2233 35.5794 20.2233C34.7607 20.2233 33.9532 20.1191 33.1568 19.9107C32.3604 19.6948 31.6384 19.3674 30.9909 18.9282C30.3508 18.4891 29.8373 17.9309 29.4503 17.2536C29.0707 16.5689 28.8809 15.7576 28.8809 14.8198H32.5204C32.5204 15.311 32.5911 15.7278 32.7325 16.0702C32.8739 16.4051 33.0749 16.6768 33.3354 16.8852C33.6033 17.0936 33.9271 17.2424 34.3067 17.3318C34.6863 17.4211 35.1105 17.4657 35.5794 17.4657C36.1227 17.4657 36.5619 17.3913 36.8968 17.2424C37.2392 17.0861 37.4922 16.874 37.6559 16.6061C37.8197 16.3381 37.9016 16.0404 37.9016 15.7129ZM47.5474 3.74492V20H43.9191V3.74492H47.5474ZM54.3576 3.74492V20H50.7292V3.74492H54.3576ZM59.0354 3.74492H62.0497L65.9572 15.3669L69.8535 3.74492H72.8678L67.1741 20H64.7291L59.0354 3.74492ZM57.2938 3.74492H60.3639L60.9333 15.7911V20H57.2938V3.74492ZM71.5393 3.74492H74.6206V20H70.9699V15.7911L71.5393 3.74492ZM85.7513 15.7129C85.7513 15.4376 85.7104 15.192 85.6285 14.9761C85.5467 14.7528 85.3978 14.5481 85.182 14.3621C84.9661 14.176 84.661 13.9899 84.2665 13.8039C83.872 13.6104 83.3548 13.4131 82.7147 13.2122C81.9853 12.974 81.2894 12.7061 80.627 12.4083C79.972 12.1032 79.3877 11.7497 78.8742 11.3477C78.3606 10.9458 77.955 10.4769 77.6573 9.94105C77.367 9.40517 77.2219 8.77998 77.2219 8.06547C77.2219 7.37329 77.3745 6.74809 77.6796 6.18988C77.9848 5.63167 78.4127 5.15533 78.9635 4.76086C79.5143 4.35895 80.1618 4.0538 80.9061 3.8454C81.6504 3.62956 82.4691 3.52164 83.3622 3.52164C84.553 3.52164 85.5988 3.73376 86.4993 4.158C87.4074 4.57479 88.1144 5.16278 88.6205 5.92194C89.1266 6.67366 89.3797 7.54819 89.3797 8.54553H85.7625C85.7625 8.1064 85.6695 7.71938 85.4834 7.38445C85.3048 7.04208 85.0294 6.77414 84.6572 6.58063C84.2925 6.38712 83.8348 6.29036 83.284 6.29036C82.7482 6.29036 82.2979 6.37223 81.9332 6.53597C81.5759 6.69227 81.3043 6.90811 81.1182 7.1835C80.9396 7.45888 80.8503 7.76031 80.8503 8.0878C80.8503 8.34829 80.9172 8.58646 81.0512 8.80231C81.1926 9.0107 81.3936 9.20794 81.6541 9.39401C81.922 9.57264 82.2495 9.74382 82.6365 9.90756C83.0235 10.0713 83.4664 10.2276 83.9651 10.3765C84.8359 10.6518 85.6062 10.957 86.2761 11.2919C86.9533 11.6268 87.5227 12.0064 87.9842 12.4307C88.4456 12.8549 88.7917 13.335 89.0224 13.8709C89.2606 14.4067 89.3797 15.0133 89.3797 15.6906C89.3797 16.4126 89.2383 17.0527 88.9555 17.6109C88.6801 18.1691 88.2782 18.6454 87.7497 19.0399C87.2287 19.4269 86.6035 19.7209 85.8741 19.9219C85.1447 20.1228 84.3298 20.2233 83.4292 20.2233C82.6105 20.2233 81.8029 20.1191 81.0065 19.9107C80.2102 19.6948 79.4882 19.3674 78.8407 18.9282C78.2006 18.4891 77.6871 17.9309 77.3 17.2536C76.9205 16.5689 76.7307 15.7576 76.7307 14.8198H80.3702C80.3702 15.311 80.4409 15.7278 80.5823 16.0702C80.7237 16.4051 80.9247 16.6768 81.1852 16.8852C81.4531 17.0936 81.7769 17.2424 82.1565 17.3318C82.536 17.4211 82.9603 17.4657 83.4292 17.4657C83.9725 17.4657 84.4116 17.3913 84.7466 17.2424C85.0889 17.0861 85.342 16.874 85.5057 16.6061C85.6695 16.3381 85.7513 16.0404 85.7513 15.7129Z" fill="#101828"/>
</svg>
