<svg width="24" height="24" viewBox="0 0 24 24" fill="none" xmlns="http://www.w3.org/2000/svg">
<path d="M12.4155 2.47327C15.2735 4.37862 16.1526 8.46755 16.2262 12.0001C16.1526 15.5326 15.2735 19.6215 12.4155 21.5268M12.4155 2.47327C9.55742 4.37862 8.67834 8.46755 8.60474 12.0001C8.67834 15.5326 9.55742 19.6215 12.4155 21.5268M12.4155 2.47327C7.15396 2.47327 2.88867 6.73855 2.88867 12.0001M12.4155 2.47327C17.677 2.47327 21.9422 6.73855 21.9422 12.0001M12.4155 21.5268C17.677 21.5268 21.9422 17.2616 21.9422 12.0001M12.4155 21.5268C7.15396 21.5268 2.88867 17.2616 2.88867 12.0001M21.9422 12.0001C20.0369 14.8581 15.948 15.7372 12.4155 15.8108C8.88296 15.7372 4.79403 14.8581 2.88867 12.0001M21.9422 12.0001C20.0369 9.14202 15.948 8.26293 12.4155 8.18934C8.88296 8.26293 4.79403 9.14202 2.88867 12.0001" stroke="#1570EF" stroke-width="1.90536" stroke-linecap="round" stroke-linejoin="round"/>
</svg>
