<svg width="15" height="20" viewBox="0 0 15 20" fill="none" xmlns="http://www.w3.org/2000/svg">
<path fill-rule="evenodd" clip-rule="evenodd" d="M2 0C0.895431 0 0 0.895431 0 2V18C0 19.1046 0.89543 20 2 20H13C14.1046 20 15 19.1046 15 18V5H10V0H2Z" fill="#0563D1"/>
<path d="M15 5L10 0V5H15Z" fill="#4F92DF"/>
<path d="M3.66248 12.4508C4.19415 12.4508 4.63781 12.6359 4.99348 13.0063C5.35281 13.3729 5.53248 13.8294 5.53248 14.3758C5.53248 14.9221 5.35281 15.3804 4.99348 15.7508C4.63781 16.1174 4.19415 16.3008 3.66248 16.3008H2.09498V12.4508H3.66248ZM3.66248 15.3493C3.93015 15.3493 4.14831 15.2613 4.31698 15.0853C4.48565 14.9056 4.56998 14.6691 4.56998 14.3758C4.56998 14.0824 4.48565 13.8478 4.31698 13.6718C4.14831 13.4921 3.93015 13.4023 3.66248 13.4023H3.10698V15.3493H3.66248ZM9.28902 15.8058C8.90036 16.1908 8.42369 16.3833 7.85902 16.3833C7.29436 16.3833 6.81586 16.1908 6.42352 15.8058C6.03486 15.4171 5.84052 14.9404 5.84052 14.3758C5.84052 13.8111 6.03486 13.3363 6.42352 12.9513C6.81586 12.5626 7.29436 12.3683 7.85902 12.3683C8.42369 12.3683 8.90036 12.5626 9.28902 12.9513C9.68136 13.3363 9.87752 13.8111 9.87752 14.3758C9.87752 14.9404 9.68136 15.4171 9.28902 15.8058ZM7.11652 15.1293C7.31452 15.3236 7.56202 15.4208 7.85902 15.4208C8.15602 15.4208 8.40352 15.3236 8.60152 15.1293C8.79952 14.9313 8.89852 14.6801 8.89852 14.3758C8.89852 14.0714 8.79952 13.8221 8.60152 13.6278C8.40352 13.4298 8.15602 13.3308 7.85902 13.3308C7.56202 13.3308 7.31452 13.4298 7.11652 13.6278C6.91852 13.8221 6.81952 14.0714 6.81952 14.3758C6.81952 14.6801 6.91852 14.9313 7.11652 15.1293ZM12.1932 16.3833C11.6139 16.3833 11.1336 16.1926 10.7522 15.8113C10.3746 15.4263 10.1857 14.9478 10.1857 14.3758C10.1857 13.8038 10.3746 13.3271 10.7522 12.9458C11.1336 12.5608 11.6139 12.3683 12.1932 12.3683C12.5416 12.3683 12.8642 12.4508 13.1612 12.6158C13.4582 12.7808 13.6911 13.0026 13.8597 13.2813L13.0072 13.7708C12.9339 13.6351 12.8239 13.5288 12.6772 13.4518C12.5342 13.3711 12.3729 13.3308 12.1932 13.3308C11.8852 13.3308 11.6359 13.4279 11.4452 13.6223C11.2582 13.8129 11.1647 14.0641 11.1647 14.3758C11.1647 14.6874 11.2582 14.9404 11.4452 15.1348C11.6359 15.3254 11.8852 15.4208 12.1932 15.4208C12.3729 15.4208 12.5342 15.3823 12.6772 15.3053C12.8239 15.2246 12.9339 15.1146 13.0072 14.9753L13.8597 15.4703C13.6911 15.7526 13.4582 15.9763 13.1612 16.1413C12.8679 16.3026 12.5452 16.3833 12.1932 16.3833Z" fill="white"/>
</svg>
