<svg width="164" height="173" viewBox="0 0 164 173" fill="none" xmlns="http://www.w3.org/2000/svg">
<path d="M153 128.207C151.219 130.514 149.323 132.731 147.323 134.852C130.987 152.177 107.763 163 82 163C56.2366 163 33.0153 152.177 16.6792 134.852C14.6791 132.733 12.7834 130.516 11 128.209C11.9676 124.545 13.1184 120.838 15.623 118.013C18.837 114.392 23.724 112.824 28.3687 111.407C39.5714 107.99 50.7722 104.575 61.975 101.157C63.0233 98.4023 64.0677 94.1485 64.4027 87.7873C61.9158 84.9802 59.8329 81.9006 58.757 79.2208C57.0209 74.9062 56.6505 70.7994 56.6327 68.2059C56.1933 69.0057 55.1469 69.4233 54.2266 69.2508C53.196 69.0567 52.3585 68.2667 51.8659 67.3493C51.3713 66.4319 51.1703 65.387 51.0047 64.3598C50.4215 60.7784 50.1672 57.1459 50.2441 53.5194C50.2756 51.9727 50.6146 50.083 52.0846 49.5851C52.7724 49.3538 53.5369 49.5204 54.1715 49.883C53.8424 42.6162 53.8581 38.2604 54.2188 30.9936C54.404 27.2749 54.7173 23.421 56.5559 20.1787C58.2545 17.1814 61.1079 14.9192 64.2746 13.5352C65.9693 12.7962 67.7586 12.1944 69.5262 11.7082C78.0234 9.36959 87.0309 9.40684 95.463 11.9768C96.8897 12.41 98.3302 12.9256 99.7273 13.5352C102.894 14.9192 105.747 17.1814 107.444 20.1787C109.283 23.421 109.598 27.2749 109.783 30.9936C110.144 38.2604 110.16 42.6162 109.831 49.883C110.465 49.5204 111.23 49.3538 111.915 49.5851C113.387 50.083 113.726 51.9727 113.758 53.5194C113.835 57.1459 113.581 60.7784 112.997 64.3598C112.832 65.387 112.631 66.4319 112.136 67.3493C111.641 68.2667 110.804 69.0567 109.775 69.2508C108.855 69.4233 107.807 69.0057 107.367 68.2059C107.35 70.7994 106.981 74.9062 105.245 79.2208C104.169 81.9006 102.086 84.9802 99.5973 87.7873C99.9342 94.1485 100.977 98.4023 102.025 101.157C113.228 104.575 124.431 107.99 135.633 111.407C140.276 112.824 145.165 114.392 148.379 118.013C150.884 120.838 152.036 124.543 153 128.207Z" fill="#FCFCFD"/>
<path d="M158.461 129.315L156.958 131.262C155.075 133.701 153.072 136.043 150.961 138.282C133.716 156.571 109.192 168 82 168C54.8075 168 30.2858 156.571 13.0414 138.282C10.9294 136.045 8.9275 133.703 7.04397 131.266L5.53622 129.316L6.16573 126.932C7.12614 123.295 8.50465 118.505 11.8818 114.696L11.8837 114.694C16.1273 109.913 22.3433 108.017 26.7402 106.676L26.9094 106.625L26.91 106.624C30.1614 105.633 33.4125 104.641 36.6635 103.65C43.7834 101.479 50.9025 99.3076 58.0225 97.1351C58.531 95.2584 59.0066 92.7526 59.2784 89.4717C57.1292 86.8158 55.2445 83.8919 54.117 81.0838C53.0901 78.5309 52.473 76.0539 52.1106 73.8416C49.813 73.0186 48.2848 71.247 47.4632 69.7192C46.5286 67.9842 46.2334 66.1787 46.0692 65.1599C45.4373 61.2788 45.162 57.3438 45.2452 53.4154M158.461 129.315L50.2441 53.5194M158.461 129.315L157.836 126.935C156.877 123.291 155.497 118.505 152.12 114.696L152.118 114.694C147.876 109.915 141.661 108.019 137.267 106.678L137.093 106.625L137.092 106.624C133.366 105.488 129.639 104.352 125.913 103.215C119.268 101.189 112.623 99.1628 105.978 97.1352C105.47 95.2589 104.995 92.7533 104.722 89.4721C106.872 86.8168 108.756 83.8943 109.884 81.0873C110.911 78.533 111.528 76.0547 111.89 73.8417M158.461 129.315L111.89 73.8417M45.2452 53.4154C45.2452 53.4147 45.2452 53.4141 45.2452 53.4135L50.2441 53.5194M45.2452 53.4154C45.2452 53.4161 45.2452 53.4168 45.2451 53.4175L50.2441 53.5194M45.2452 53.4154C45.2659 52.4073 45.3828 50.9009 45.9421 49.4065C46.4007 48.1809 47.314 46.5961 49.0051 45.5439M50.2441 53.5194C50.2696 52.268 50.4964 50.792 51.3607 50.0103L49.1766 50.1092C49.1022 48.4659 49.045 46.9651 49.0051 45.5439M49.0051 45.5439C48.8647 40.5413 48.9381 36.5251 49.2249 30.7458L49.225 30.7449C49.4058 27.1138 49.709 22.1175 52.2059 17.7134L64.2746 13.5352C61.1079 14.9192 58.2545 17.1814 56.5559 20.1787C54.7173 23.421 54.404 27.2749 54.2188 30.9936C53.9543 36.3231 53.8753 40.0868 53.9818 44.5814C52.9202 44.4014 51.7286 44.4296 50.4906 44.846L50.4806 44.8493C49.9329 45.0349 49.4429 45.2716 49.0051 45.5439ZM54.2266 69.2508C55.1469 69.4233 56.1933 69.0057 56.6327 68.2059C56.6428 69.6769 56.7663 71.6346 57.1881 73.841L54.2266 69.2508ZM54.2266 69.2508C53.5517 69.1237 52.9595 68.741 52.4928 68.2342L54.2266 69.2508ZM111.89 73.8417C114.189 73.0179 115.717 71.244 116.537 69.7221C117.472 67.9883 117.768 66.1836 117.932 65.1636L111.89 73.8417ZM101.727 8.95251L101.73 8.95365C105.659 10.6709 109.453 13.5793 111.794 17.7124L101.727 8.95251ZM101.727 8.95251C100.126 8.25389 98.5 7.6736 96.9171 7.19289M101.727 8.95251L96.9171 7.19289M96.9171 7.19289C87.5483 4.33825 77.5761 4.30695 68.2003 6.88724L96.9171 7.19289ZM118.757 53.4155C118.736 52.4074 118.619 50.9003 118.059 49.4051C117.6 48.1789 116.686 46.5961 114.997 45.5448C115.137 40.5418 115.064 36.5254 114.777 30.7458L114.777 30.7449C114.596 27.1119 114.291 22.1183 111.795 17.7156L118.757 53.4155ZM117.932 65.1631C118.564 61.2816 118.84 57.3462 118.757 53.4175L117.932 65.1631ZM52.0846 49.5851C52.7724 49.3538 53.5369 49.5204 54.1715 49.883L52.0846 49.5851ZM62.2723 8.95365C58.3421 10.6713 54.5487 13.58 52.2065 17.7124L68.1994 6.88748C66.2543 7.42249 64.233 8.09865 62.276 8.95205L62.2723 8.95365Z" stroke="white" stroke-opacity="0.25" stroke-width="10"/>
</svg>